<svg width="40" height="40" viewBox="0 0 40 40" fill="none" xmlns="http://www.w3.org/2000/svg">
<path d="M38.8742 20.2729C38.9463 20.0986 38.9463 19.9021 38.8742 19.7271C38.8378 19.6393 38.7849 19.56 38.7192 19.4936L30.1485 10.9236C29.8692 10.6443 29.4178 10.6443 29.1385 10.9236C28.8592 11.2029 28.8592 11.6543 29.1385 11.9336L36.4906 19.2857H14.6435C14.2492 19.2857 13.9292 19.605 13.9292 20C13.9292 20.395 14.2492 20.7143 14.6435 20.7143H36.4906L29.1385 28.0664C28.8592 28.3457 28.8592 28.7971 29.1385 29.0764C29.2778 29.2157 29.4606 29.2857 29.6435 29.2857C29.8263 29.2857 30.0092 29.2157 30.1485 29.0764L38.7192 20.5057C38.7849 20.44 38.8378 20.3607 38.8742 20.2729Z" fill="white"/>
<path d="M26.0723 23.5714C25.678 23.5714 25.358 23.8907 25.358 24.2857V38.5714H2.50084V1.42857H25.358V15.7143C25.358 16.1093 25.678 16.4286 26.0723 16.4286C26.4665 16.4286 26.7865 16.1093 26.7865 15.7143V0.714286C26.7865 0.319286 26.4665 0 26.0723 0H1.78655C1.39227 0 1.07227 0.319286 1.07227 0.714286V39.2857C1.07227 39.6807 1.39227 40 1.78655 40H26.0723C26.4665 40 26.7865 39.6807 26.7865 39.2857V24.2857C26.7865 23.8907 26.4665 23.5714 26.0723 23.5714Z" fill="white"/>
</svg>
